<svg xmlns="http://www.w3.org/2000/svg" version="1.1" xmlns:xlink="http://www.w3.org/1999/xlink" xmlns:svgjs="http://svgjs.dev/svgjs" width="1000" height="707" viewBox="0 0 1000 707"><g transform="matrix(1,0,0,1,-0.6060606060606233,0)"><svg viewBox="0 0 396 280" data-background-color="#dedede" preserveAspectRatio="xMidYMid meet" height="707" width="1000" xmlns="http://www.w3.org/2000/svg" xmlns:xlink="http://www.w3.org/1999/xlink"><g id="tight-bounds" transform="matrix(1,0,0,1,0.2400000000000091,0)"><svg viewBox="0 0 395.52 280" height="280" width="395.52"><g><svg viewBox="0 0 395.52 280" height="280" width="395.52"><g transform="matrix(1,0,0,1,122.77925310767972,60.80404050710668)"><svg viewBox="0 0 149.96149378464054 158.39191898578665" height="158.39191898578665" width="149.96149378464054"><g><svg viewBox="0 0 149.96149378464054 158.39191898578665" height="158.39191898578665" width="149.96149378464054"><g><svg viewBox="0 0 223.7398992759226 236.31794473115414" height="158.39191898578665" width="149.96149378464054"><g transform="matrix(1,0,0,1,0,162.98556982499244)"><svg viewBox="0 0 223.7398992759226 73.3323749061617" height="73.3323749061617" width="223.7398992759226"><g><svg viewBox="0 0 223.7398992759226 73.3323749061617" height="73.3323749061617" width="223.7398992759226"><g><svg viewBox="0 0 223.7398992759226 46.45773668021819" height="46.45773668021819" width="223.7398992759226"><g transform="matrix(1,0,0,1,0,0)"><svg width="223.7398992759226" viewBox="2.759999990463257 -37.060001373291016 233.85000610351562 48.560001373291016" height="46.45773668021819" data-palette-color="#374151"><path d="M2.76 0L2.76-6.69 6.2-6.69 6.2-30.3 2.76-30.3 2.76-37.01 17.99-37.01 28.91-10.3 39.04-37.01 54.49-37.01 54.49-30.3 51.05-30.3 51.05-6.69 54.44-6.69 54.44 0 40.6 0 40.6-6.69 43.14-6.69 43.14-27.98 32.06-0.44 25.2-0.44 13.92-27.25 13.92-6.69 16.67-6.69 16.67 0 2.76 0ZM58.49-18.6L58.49-25.29 70.9-25.29 70.9-18.6 68.94-18.6 72.58-9.13 76.32-18.6 74.14-18.6 74.14-25.29 86.55-25.29 86.55-18.6 83.79-18.6 74 4.81 78.34 4.81 78.34 11.5 62.64 11.5 62.64 4.81 67.06 4.81 68.97 0 61.06-18.6 58.49-18.6ZM90.3 0L90.3-6.69 94.09-6.69 94.09-30.3 90.3-30.3 90.3-37.06 108.34-37.01Q110.86-37.01 112.95-36.12 115.03-35.23 116.55-33.7 118.06-32.18 118.9-30.14 119.75-28.1 119.75-25.81L119.75-25.81Q119.75-23.12 118.81-21.36 117.87-19.6 116.13-18.53L116.13-18.53Q117.96-17.36 119.03-15.64 120.09-13.92 120.09-11.45L120.09-11.45Q120.09-8.94 119.22-6.84 118.35-4.74 116.85-3.21 115.35-1.68 113.3-0.84 111.25 0 108.88 0L108.88 0 90.3 0ZM108.34-15.31L102.19-15.31 102.19-6.69 108.34-6.69Q109.05-6.69 109.68-7.06 110.3-7.42 110.75-8.02 111.2-8.62 111.47-9.41 111.74-10.21 111.74-11.06L111.74-11.06Q111.74-11.96 111.47-12.73 111.2-13.5 110.74-14.07 110.27-14.65 109.65-14.98 109.03-15.31 108.34-15.31L108.34-15.31ZM108-30.3L102.19-30.3 102.19-22 108-22Q108.69-22 109.3-22.34 109.91-22.68 110.36-23.25 110.81-23.83 111.08-24.55 111.35-25.27 111.35-26.05L111.35-26.05Q111.35-26.81 111.08-27.56 110.81-28.32 110.36-28.93 109.91-29.54 109.3-29.92 108.69-30.3 108-30.3L108-30.3ZM138.88 0L138.88-1.37Q138.03-0.83 137.32-0.45 136.61-0.07 135.91 0.16 135.2 0.39 134.44 0.5 133.68 0.61 132.78 0.61L132.78 0.61Q130.51 0.61 128.72-0.01 126.92-0.63 125.69-1.72 124.46-2.81 123.8-4.28 123.14-5.76 123.14-7.5L123.14-7.5Q123.14-9.25 123.81-10.74 124.48-12.23 125.75-13.29 127.02-14.36 128.86-14.95 130.71-15.55 133.07-15.55L133.07-15.55Q134.81-15.55 136.24-15.37 137.66-15.19 138.88-14.92L138.88-14.92 138.88-15.7Q138.88-16.65 138.52-17.35 138.15-18.04 137.49-18.49 136.83-18.95 135.91-19.15 134.98-19.36 133.88-19.36L133.88-19.36Q131.58-19.36 129.84-18.91 128.09-18.46 126.48-17.6L126.48-17.6 124.14-22.34Q126.63-24.05 129.35-24.95 132.07-25.85 135.12-25.85L135.12-25.85Q137.49-25.85 139.51-25.33 141.52-24.8 142.96-23.62 144.4-22.44 145.22-20.53 146.04-18.63 146.04-15.89L146.04-15.89 146.04-6.69 149.43-6.69 149.43 0 138.88 0ZM133.32-5.15L133.32-5.15Q135.05-5.15 136.47-5.71 137.88-6.27 138.88-7.08L138.88-7.08 138.88-10.3 133.02-10.3Q132.46-10.3 131.93-10.13 131.39-9.96 130.96-9.64 130.53-9.33 130.28-8.86 130.02-8.4 130.02-7.79L130.02-7.79Q130.02-6.67 130.84-5.91 131.66-5.15 133.32-5.15ZM154.92 0L154.92-4 165.4-18.8 160.49-18.8 160.49-14.99 154.12-14.99 154.12-25.29 176.28-25.29 176.28-20.9 165.27-6.54 170.89-6.54 170.89-11.4 177.28-11.4 177.28 0 154.92 0ZM197.96 0L197.96-1.37Q197.11-0.83 196.4-0.45 195.69-0.07 194.98 0.16 194.27 0.39 193.52 0.5 192.76 0.61 191.86 0.61L191.86 0.61Q189.59 0.61 187.79-0.01 186-0.63 184.77-1.72 183.53-2.81 182.87-4.28 182.21-5.76 182.21-7.5L182.21-7.5Q182.21-9.25 182.89-10.74 183.56-12.23 184.83-13.29 186.1-14.36 187.94-14.95 189.78-15.55 192.15-15.55L192.15-15.55Q193.88-15.55 195.31-15.37 196.74-15.19 197.96-14.92L197.96-14.92 197.96-15.7Q197.96-16.65 197.59-17.35 197.23-18.04 196.57-18.49 195.91-18.95 194.98-19.15 194.05-19.36 192.96-19.36L192.96-19.36Q190.66-19.36 188.92-18.91 187.17-18.46 185.56-17.6L185.56-17.6 183.22-22.34Q185.71-24.05 188.43-24.95 191.15-25.85 194.2-25.85L194.2-25.85Q196.57-25.85 198.58-25.33 200.6-24.8 202.04-23.62 203.48-22.44 204.3-20.53 205.11-18.63 205.11-15.89L205.11-15.89 205.11-6.69 208.51-6.69 208.51 0 197.96 0ZM192.39-5.15L192.39-5.15Q194.13-5.15 195.54-5.71 196.96-6.27 197.96-7.08L197.96-7.08 197.96-10.3 192.1-10.3Q191.54-10.3 191-10.13 190.47-9.96 190.04-9.64 189.61-9.33 189.36-8.86 189.1-8.4 189.1-7.79L189.1-7.79Q189.1-6.67 189.92-5.91 190.73-5.15 192.39-5.15ZM236.61-25.24L236.61-16.09 229.75-16.09 229.75-18.7Q228.74-18.7 227.91-18.57 227.08-18.43 226.46-18.12 225.84-17.8 225.41-17.24 224.99-16.67 224.81-15.84L224.81-15.84 224.81-6.69 229.97-6.69 229.97 0 213.46 0 213.46-6.69 217.25-6.69 217.25-18.6 213.51-18.6 213.51-25.29 224.77-25.29 224.77-23.51Q225.84-24.37 227.18-24.83 228.53-25.29 230.11-25.29L230.11-25.29Q231.72-25.29 233.43-25.27 235.14-25.24 236.61-25.24L236.61-25.24Z" opacity="1" transform="matrix(1,0,0,1,0,0)" fill="#374151" class="undefined-text-0" data-fill-palette-color="primary" id="text-0"></path></svg></g></svg></g><g transform="matrix(1,0,0,1,0,57.42529332473738)"><svg viewBox="0 0 223.7398992759226 15.907081581424318" height="15.907081581424318" width="223.7398992759226"><g transform="matrix(1,0,0,1,0,0)"><svg width="223.7398992759226" viewBox="0.45000001788139343 -38.099998474121094 709.540771484375 50.44999694824219" height="15.907081581424318" data-palette-color="#374151"><path d="M34.5-12.85L30.7-11.9 30.7-3.4 19.6 1 18.05 1.05Q11.9 1.05 7.95-1.48 4-4 2.23-7.88 0.45-11.75 0.45-15.95L0.45-15.95Q0.45-23.8 5.68-28.95 10.9-34.1 19.25-34.1L19.25-34.1Q25.7-34.1 30.15-31.05L30.15-31.05 30.2-29.95Q30.2-26.2 29.05-21.95L29.05-21.95 23.7-21.95 22.15-28Q18.4-29.35 14.1-29.3L14.1-29.3Q11.85-27.45 10.68-24.2 9.5-20.95 9.5-17.25L9.5-17.25Q9.5-11.5 12.28-7.98 15.05-4.45 19.7-4.45L19.7-4.45 22.55-4.7 22.55-11.05Q19.3-12.5 17.8-13.55L17.8-13.55 18.1-15.2 34.45-15.2 34.5-12.85ZM58.85-14.35L55.95-11.45 43.35-11.55Q43.7-8.3 45.67-6.55 47.65-4.8 50.65-4.8L50.65-4.8Q53.3-4.8 57-6.7L57-6.7 58.25-3.85 50.4 0.6 48.1 0.75Q42.55 0.75 38.87-2.75 35.2-6.25 35.2-11.7L35.2-11.7Q35.2-17.25 38.92-21.13 42.65-25 47.95-25L47.95-25Q52.8-25 55.85-22.08 58.9-19.15 58.85-14.35L58.85-14.35ZM46.6-20.85L46.6-20.85Q44.2-19.35 43.55-15.35L43.55-15.35 51.05-15.8Q50.75-17.85 49.52-19.33 48.3-20.8 46.6-20.85ZM74.09-5.55L74.09-5.55Q75.84-5.55 78.09-6L78.09-6 78.45-3.4 70.2 0.85Q67.7 0.95 65.62-0.73 63.55-2.4 63.55-4.65L63.55-4.65 63.55-18.05 59.9-18.05 59.75-20.75Q61.4-22.15 64-23.65L64-23.65 66.75-30.35 70.7-30.35 71.95-23.65 78.84-23.65 78.9-21.15 76.4-18 72.2-18 72.2-7.7Q72.2-5.55 74.09-5.55ZM126.49-3.2L130.09-2.65 130.04 0 113.09 0 112.79-1.6Q114.19-2.6 116.79-3.85L116.79-3.85 115.04-8.6 104.04-8.6 102.04-3.35 106.34-2.65 106.29 0 92.29 0 91.99-1.6Q93.74-2.8 96.19-3.9L96.19-3.9 106.89-30.25 106.14-32.3 113.94-34.3 126.49-3.2ZM105.59-12.8L113.44-12.8 109.54-23.3 105.59-12.8ZM156.74-16.6L156.74-4.2Q158.94-3.45 160.34-2.45L160.34-2.45 160.19 0 148.09 0 148.09-13.85Q148.09-18.9 144.89-18.9L144.89-18.9Q143.44-18.9 141.64-18L141.64-18 141.64-4.05Q143.44-3.25 144.54-2.45L144.54-2.45 144.44 0 129.39 0 129.29-1.75Q130.84-2.65 132.99-3.4L132.99-3.4 132.99-19.95 129.29-20.65 129.04-23.05Q133.49-24.75 138.94-24.9L138.94-24.9 141.64-22.2 141.64-20.6Q145.69-23.65 149.19-24.75L149.19-24.75Q153.89-24.6 156.14-21.15L156.14-21.15Q156.69-20.15 156.74-16.6L156.74-16.6ZM188.19-23.95L188.34-21.5 185.89-20.2 183.34-11.4 181.54-5.9Q179.44 0.05 176.09 4.15 172.74 8.25 166.74 11.5L166.74 11.5 162.24 3.7Q168.84 1.7 173.44-0.8L173.44-0.8 168.54-2.2 162.34-19.1 158.54-21.2 158.59-23.95 169.84-23.95 173.34-11.8 173.74-7.8 174.54-7.8Q176.94-17.3 177.94-23.95L177.94-23.95 188.19-23.95ZM202.68-5.55L202.68-5.55Q204.43-5.55 206.68-6L206.68-6 207.03-3.4 198.78 0.85Q196.28 0.95 194.21-0.73 192.13-2.4 192.13-4.65L192.13-4.65 192.13-18.05 188.48-18.05 188.33-20.75Q189.98-22.15 192.58-23.65L192.58-23.65 195.33-30.35 199.28-30.35 200.53-23.65 207.43-23.65 207.48-21.15 204.98-18 200.78-18 200.78-7.7Q200.78-5.55 202.68-5.55ZM236.48-16.6L236.48-4.25Q238.38-3.4 239.78-2.45L239.78-2.45 239.68 0 227.83 0 227.83-13.85Q227.83-18.9 224.63-18.9L224.63-18.9Q223.18-18.9 221.48-18.05L221.48-18.05 221.48-4 224.18-2.45 224.08 0 209.18 0 209.08-1.75Q210.93-2.8 212.83-3.45L212.83-3.45 212.83-31.85 209.13-32.5 208.88-35Q213.08-36.5 218.78-36.85L218.78-36.85 221.48-34.35 221.48-20.65Q225.48-23.7 228.93-24.75L228.93-24.75Q233.63-24.6 235.88-21.15L235.88-21.15Q236.43-20.15 236.48-16.6L236.48-16.6ZM249.58-27.55L249.58-27.55Q246.13-29.1 243.63-32.1L243.63-32.1Q245.63-35.95 248.58-38.1L248.58-38.1Q251.93-36.35 254.23-33L254.23-33Q252.58-29.7 249.58-27.55ZM253.43-22.5L253.43-4.2Q255.63-3.45 257.03-2.45L257.03-2.45 256.93 0 241.08 0 240.98-1.75Q242.73-2.75 244.78-3.45L244.78-3.45 244.78-19.95 241.08-20.65 240.83-23.05Q245.28-24.75 250.73-24.9L250.73-24.9 253.43-22.5ZM285.98-16.6L285.98-4.2Q288.18-3.45 289.58-2.45L289.58-2.45 289.43 0 277.33 0 277.33-13.85Q277.33-18.9 274.13-18.9L274.13-18.9Q272.68-18.9 270.88-18L270.88-18 270.88-4.05Q272.68-3.25 273.78-2.45L273.78-2.45 273.68 0 258.63 0 258.53-1.75Q260.08-2.65 262.23-3.4L262.23-3.4 262.23-19.95 258.53-20.65 258.28-23.05Q262.73-24.75 268.18-24.9L268.18-24.9 270.88-22.2 270.88-20.6Q274.93-23.65 278.43-24.75L278.43-24.75Q283.13-24.6 285.38-21.15L285.38-21.15Q285.93-20.15 285.98-16.6L285.98-16.6ZM300.87-7.85L298.67-5.95Q302.72-5.9 307.37-5.13 312.02-4.35 315.77-3.15L315.77-3.15Q316.47-1.45 316.47 0.15L316.47 0.15Q316.47 4.95 311.8 8.65 307.12 12.35 300.82 12.35L300.82 12.35Q296.62 12.35 293.42 10.48 290.22 8.6 289.92 4.65L289.92 4.65 295.12 0 292.47-0.15 291.42-3.85Q294.32-6.85 297.12-8.55L297.12-8.55Q294.07-9.6 292.4-11.68 290.72-13.75 290.72-16.3L290.72-16.3Q290.72-20.05 294.1-22.63 297.47-25.2 302.57-25.2L302.57-25.2Q306.62-25.2 309.67-23.55L309.67-23.55Q311.17-27.75 316.42-28.05L316.42-28.05 317.82-20.95 316.07-21.1Q314.47-21.1 313.07-20.55L313.07-20.55Q314.32-18.7 314.32-16.45L314.32-16.45Q314.32-12.7 310.97-10.25 307.62-7.8 302.37-7.8L302.37-7.8 300.87-7.85ZM300.42-21L300.42-21Q299.12-19.9 299.12-16.5L299.12-16.5Q299.12-14.3 300.12-12.85 301.12-11.4 302.97-11.4L302.97-11.4Q303.67-11.4 304.32-11.6L304.32-11.6Q305.97-12.75 305.97-15.95L305.97-15.95Q305.97-18.05 304.82-19.68 303.67-21.3 301.87-21.3L301.87-21.3Q301.17-21.3 300.42-21ZM302.17 5.95L302.17 5.95Q304.67 5.95 306.97 5.15 309.27 4.35 310.37 2.9L310.37 2.9Q306.07 1.2 298.27 0.3L298.27 0.3Q296.62 1.8 296.62 3.05L296.62 3.05Q296.62 5.95 302.17 5.95ZM360.67-33.1L360.62-32.95 360.67-31.75Q360.67-26.9 359.72-22.7L359.72-22.7 354.72-22.7 353.77-28.15 345.72-28.7 345.72-17.55 356.82-18.4 356.82-12.7 345.72-13.2 345.72-3.6 351.82-2.65 351.77 0 333.02 0 332.72-1.6Q334.67-2.9 336.67-3.8L336.67-3.8 336.67-29.9 332.97-30.45 333.02-33.1 360.67-33.1ZM374.01-16.95L373.26-16.4 373.26-4.55Q376.62-3.75 378.72-2.45L378.72-2.45 378.62 0 361.01 0 360.92-1.75Q362.47-2.65 364.62-3.4L364.62-3.4 364.62-19.95 360.92-20.65 360.67-23.05Q365.12-24.75 370.56-24.9L370.56-24.9 373.26-21.15 373.26-20.25 377.22-24.7Q377.97-24.95 379.12-24.95L379.12-24.95Q381.12-24.95 382.79-23.95 384.47-22.95 385.12-21.15L385.12-21.15 379.37-13.9Q376.01-16.7 374.01-16.95L374.01-16.95ZM384.91-12.15L384.91-12.15Q384.91-17.8 388.46-21.4 392.01-25 397.46-25 402.91-25 406.41-21.35 409.91-17.7 409.91-11.9L409.91-11.9Q409.91-6.15 406.49-2.58 403.06 1 397.66 1L397.66 1Q392.16 1 388.54-2.73 384.91-6.45 384.91-12.15ZM399.31-3.75L399.31-3.75Q401.16-5.15 401.16-11.35L401.16-11.35Q401.16-20.2 397.11-20.2L397.11-20.2Q395.86-20.2 395.16-19.65L395.16-19.65Q393.66-17.65 393.66-12.05L393.66-12.05Q393.66-8.25 394.71-5.88 395.76-3.5 397.91-3.5L397.91-3.5Q398.61-3.5 399.31-3.75ZM453.61-16.6L453.61-4.3Q456.01-3.45 457.46-2.45L457.46-2.45 457.31 0 444.96 0 444.96-13.85Q444.96-18.9 441.76-18.9L441.76-18.9Q440.36-18.9 438.66-18.1L438.66-18.1 438.71-4.1Q440.26-3.45 441.71-2.45L441.71-2.45 441.56 0 430.06 0 430.06-13.85Q430.06-18.9 426.86-18.9L426.86-18.9Q425.61-18.9 423.86-18.15L423.86-18.15 423.86-4.05Q425.66-3.25 426.76-2.45L426.76-2.45 426.66 0 411.61 0 411.51-1.75Q413.06-2.65 415.21-3.4L415.21-3.4 415.21-19.95 411.51-20.65 411.26-23.05Q415.71-24.75 421.16-24.9L421.16-24.9 423.86-22.2 423.86-20.8Q427.81-23.7 431.16-24.75L431.16-24.75Q435.86-24.6 438.11-21.15L438.11-21.15 438.41-20.5Q442.46-23.6 446.06-24.75L446.06-24.75Q450.76-24.6 453.01-21.15L453.01-21.15Q453.56-20.15 453.61-16.6L453.61-16.6ZM504.86-3.2L508.46-2.65 508.41 0 491.46 0 491.16-1.6Q492.56-2.6 495.16-3.85L495.16-3.85 493.41-8.6 482.41-8.6 480.41-3.35 484.71-2.65 484.66 0 470.66 0 470.36-1.6Q472.11-2.8 474.56-3.9L474.56-3.9 485.25-30.25 484.5-32.3 492.31-34.3 504.86-3.2ZM483.96-12.8L491.81-12.8 487.91-23.3 483.96-12.8ZM535.1-16.6L535.1-4.2Q537.3-3.45 538.7-2.45L538.7-2.45 538.55 0 526.45 0 526.45-13.85Q526.45-18.9 523.25-18.9L523.25-18.9Q521.8-18.9 520-18L520-18 520-4.05Q521.8-3.25 522.9-2.45L522.9-2.45 522.8 0 507.75 0 507.65-1.75Q509.2-2.65 511.35-3.4L511.35-3.4 511.35-19.95 507.65-20.65 507.4-23.05Q511.85-24.75 517.3-24.9L517.3-24.9 520-22.2 520-20.6Q524.05-23.65 527.55-24.75L527.55-24.75Q532.25-24.6 534.5-21.15L534.5-21.15Q535.05-20.15 535.1-16.6L535.1-16.6ZM566.55-23.95L566.7-21.5 564.25-20.2 561.7-11.4 559.9-5.9Q557.8 0.05 554.45 4.15 551.1 8.25 545.1 11.5L545.1 11.5 540.6 3.7Q547.2 1.7 551.8-0.8L551.8-0.8 546.9-2.2 540.7-19.1 536.9-21.2 536.95-23.95 548.2-23.95 551.7-11.8 552.1-7.8 552.9-7.8Q555.3-17.3 556.3-23.95L556.3-23.95 566.55-23.95ZM606.2-23.95L606.35-21.5 604.05-20.15 596.95-0.25Q594.7 0.45 591.8 0.45L591.8 0.45Q590.2 0.45 588.95 0.2L588.95 0.2 586.3-7.35 583.25-0.25Q581.25 0.4 578 0.4L578 0.4Q576.05 0.4 575 0.2L575 0.2 568.25-19.55 565.45-21.2 565.5-23.95 576-23.95 580.8-6.8 581.5-6.8 584.05-13.85 580.75-23.35 589.55-23.75 594-6.8 594.65-6.8 596-23.95 606.2-23.95ZM633.84-16.6L633.84-4.25Q635.74-3.4 637.14-2.45L637.14-2.45 637.04 0 625.19 0 625.19-13.85Q625.19-18.9 621.99-18.9L621.99-18.9Q620.54-18.9 618.84-18.05L618.84-18.05 618.84-4 621.54-2.45 621.44 0 606.54 0 606.44-1.75Q608.29-2.8 610.19-3.45L610.19-3.45 610.19-31.85 606.49-32.5 606.24-35Q610.44-36.5 616.14-36.85L616.14-36.85 618.84-34.35 618.84-20.65Q622.84-23.7 626.29-24.75L626.29-24.75Q630.99-24.6 633.24-21.15L633.24-21.15Q633.79-20.15 633.84-16.6L633.84-16.6ZM661.29-14.35L658.39-11.45 645.79-11.55Q646.14-8.3 648.12-6.55 650.09-4.8 653.09-4.8L653.09-4.8Q655.74-4.8 659.44-6.7L659.44-6.7 660.69-3.85 652.84 0.6 650.54 0.75Q644.99 0.75 641.32-2.75 637.64-6.25 637.64-11.7L637.64-11.7Q637.64-17.25 641.37-21.13 645.09-25 650.39-25L650.39-25Q655.24-25 658.29-22.08 661.34-19.15 661.29-14.35L661.29-14.35ZM649.04-20.85L649.04-20.85Q646.64-19.35 645.99-15.35L645.99-15.35 653.49-15.8Q653.19-17.85 651.97-19.33 650.74-20.8 649.04-20.85ZM675.44-16.95L674.69-16.4 674.69-4.55Q678.04-3.75 680.14-2.45L680.14-2.45 680.04 0 662.44 0 662.34-1.75Q663.89-2.65 666.04-3.4L666.04-3.4 666.04-19.95 662.34-20.65 662.09-23.05Q666.54-24.75 671.99-24.9L671.99-24.9 674.69-21.15 674.69-20.25 678.64-24.7Q679.39-24.95 680.54-24.95L680.54-24.95Q682.54-24.95 684.21-23.95 685.89-22.95 686.54-21.15L686.54-21.15 680.79-13.9Q677.44-16.7 675.44-16.95L675.44-16.95ZM709.99-14.35L707.09-11.45 694.49-11.55Q694.84-8.3 696.81-6.55 698.79-4.8 701.79-4.8L701.79-4.8Q704.44-4.8 708.14-6.7L708.14-6.7 709.39-3.85 701.54 0.6 699.24 0.75Q693.69 0.75 690.01-2.75 686.34-6.25 686.34-11.7L686.34-11.7Q686.34-17.25 690.06-21.13 693.79-25 699.09-25L699.09-25Q703.94-25 706.99-22.08 710.04-19.15 709.99-14.35L709.99-14.35ZM697.74-20.85L697.74-20.85Q695.34-19.35 694.69-15.35L694.69-15.35 702.19-15.8Q701.89-17.85 700.66-19.33 699.44-20.8 697.74-20.85Z" opacity="1" transform="matrix(1,0,0,1,0,0)" fill="#374151" class="undefined-text-1" data-fill-palette-color="secondary" id="text-1"></path></svg></g></svg></g></svg></g></svg></g><g transform="matrix(1,0,0,1,38.559986712937445,0)"><svg viewBox="0 0 146.6199258500477 152.01801318047325" height="152.01801318047325" width="146.6199258500477"><g><svg xmlns="http://www.w3.org/2000/svg" xmlns:xlink="http://www.w3.org/1999/xlink" version="1.1" x="0" y="0" viewBox="6.5960001945495605 3.998000144958496 86.80799865722656 90.00399780273438" enable-background="new 0 0 100 100" xml:space="preserve" height="152.01801318047325" width="146.6199258500477" class="icon-icon-0" data-fill-palette-color="accent" id="icon-0"><g fill="#374151" data-fill-palette-color="accent"><path fill="#374151" d="M70.718 19.037L66.299 7.471l-0.491-1.286h-2.229V3.998H36.421v2.187h-2.229l-0.491 1.286-4.42 11.566H6.596v63.602l0.022-0.023 11.363 11.363-0.022 0.023h64.082l-0.024-0.023L93.38 82.615l0.024 0.023V19.037H70.718zM64.431 8.185l7.45 19.499-1.441 0.551-1.222-3.197-0.228-0.594L63.579 10.28V8.185H64.431zM38.421 5.998h23.158v6.15h0.572l2.633 6.889H35.216l2.633-6.889h0.572V5.998zM35.569 8.185h0.852v2.096l-6.86 17.954-1.442-0.551L35.569 8.185zM87.404 80.105l-7.896 7.896H20.49l-7.895-7.895v-55.07h14.393l-1.452 3.801 5.179 1.979 2.208-5.779h34.154l2.208 5.779 5.178-1.979-1.452-3.801h14.394V80.105z" data-fill-palette-color="accent"></path><path fill="#374151" d="M61.537 11.729c0-0.001 0-0.001-0.001-0.002-0.018-0.096-0.047-0.186-0.076-0.276-0.015-0.046-0.024-0.092-0.042-0.136-0.031-0.081-0.071-0.157-0.111-0.233-0.025-0.05-0.05-0.099-0.079-0.146-0.042-0.067-0.089-0.131-0.137-0.194-0.038-0.049-0.077-0.098-0.119-0.145-0.05-0.054-0.101-0.105-0.155-0.154-0.052-0.048-0.106-0.092-0.162-0.135-0.054-0.04-0.107-0.08-0.164-0.116-0.067-0.042-0.138-0.077-0.209-0.112-0.055-0.027-0.107-0.057-0.164-0.079-0.086-0.034-0.176-0.059-0.267-0.083-0.049-0.013-0.095-0.029-0.146-0.039-0.143-0.028-0.29-0.045-0.441-0.045s-0.299 0.017-0.442 0.045c-0.05 0.01-0.097 0.026-0.146 0.039-0.09 0.024-0.18 0.049-0.266 0.083-0.058 0.022-0.11 0.052-0.165 0.078-0.071 0.035-0.142 0.071-0.208 0.113-0.058 0.036-0.111 0.076-0.164 0.116-0.057 0.043-0.111 0.087-0.163 0.135-0.055 0.049-0.105 0.101-0.154 0.154-0.043 0.047-0.082 0.096-0.12 0.146-0.049 0.062-0.095 0.126-0.137 0.193-0.029 0.048-0.054 0.098-0.08 0.147-0.039 0.076-0.079 0.151-0.11 0.232-0.017 0.044-0.027 0.09-0.042 0.135-0.029 0.092-0.059 0.182-0.076 0.277 0 0-0.001 0.001-0.001 0.002l0 0c-0.024 0.137-0.042 0.276-0.042 0.42h2c0-0.175 0.142-0.316 0.316-0.316 0.174 0 0.315 0.142 0.315 0.316h2C61.579 12.005 61.562 11.865 61.537 11.729L61.537 11.729z" data-fill-palette-color="accent"></path><path fill="#374151" d="M50 11.832c0.174 0 0.315 0.142 0.315 0.316h2c0-0.144-0.018-0.283-0.042-0.42l0 0c0-0.001 0-0.001-0.001-0.002-0.018-0.096-0.047-0.186-0.076-0.276-0.015-0.046-0.024-0.092-0.042-0.136-0.031-0.081-0.071-0.157-0.111-0.233-0.025-0.05-0.05-0.099-0.079-0.146-0.042-0.067-0.089-0.131-0.137-0.194-0.038-0.049-0.077-0.098-0.119-0.145-0.05-0.054-0.101-0.105-0.155-0.154-0.052-0.048-0.106-0.092-0.162-0.135-0.054-0.04-0.107-0.08-0.164-0.116-0.067-0.042-0.138-0.077-0.209-0.112-0.055-0.027-0.107-0.057-0.164-0.079-0.086-0.034-0.176-0.059-0.267-0.083-0.049-0.013-0.095-0.029-0.146-0.039C50.299 9.849 50.151 9.832 50 9.832s-0.299 0.017-0.442 0.045c-0.05 0.01-0.097 0.026-0.146 0.039-0.09 0.024-0.18 0.049-0.266 0.083-0.058 0.022-0.11 0.052-0.165 0.079-0.071 0.035-0.142 0.07-0.208 0.112-0.058 0.036-0.11 0.076-0.164 0.116-0.057 0.043-0.11 0.087-0.162 0.134-0.055 0.05-0.105 0.102-0.155 0.155-0.042 0.047-0.081 0.095-0.119 0.145-0.049 0.063-0.096 0.127-0.138 0.195-0.028 0.047-0.053 0.096-0.078 0.145-0.04 0.076-0.08 0.153-0.111 0.234-0.017 0.043-0.027 0.089-0.041 0.133-0.029 0.092-0.06 0.184-0.078 0.279v0.002l0 0c-0.024 0.137-0.042 0.276-0.042 0.42h2C49.685 11.974 49.826 11.832 50 11.832z" data-fill-palette-color="accent"></path><path fill="#374151" d="M54.632 11.832c0.174 0 0.315 0.142 0.315 0.316h2c0-0.144-0.018-0.283-0.042-0.42l0 0c0-0.001 0-0.001-0.001-0.002-0.018-0.096-0.047-0.186-0.076-0.276-0.014-0.046-0.025-0.092-0.042-0.136-0.031-0.081-0.071-0.157-0.111-0.233-0.025-0.05-0.05-0.099-0.079-0.146-0.042-0.067-0.088-0.131-0.137-0.194-0.038-0.049-0.077-0.098-0.119-0.145-0.05-0.054-0.101-0.105-0.155-0.154-0.052-0.048-0.106-0.092-0.162-0.135-0.054-0.04-0.107-0.08-0.165-0.116-0.066-0.042-0.137-0.077-0.207-0.112-0.055-0.027-0.108-0.057-0.165-0.079-0.086-0.034-0.176-0.059-0.267-0.083-0.049-0.013-0.095-0.029-0.146-0.039-0.143-0.028-0.29-0.045-0.441-0.045s-0.299 0.017-0.442 0.045c-0.05 0.01-0.097 0.026-0.146 0.039-0.09 0.024-0.181 0.049-0.266 0.083-0.058 0.022-0.11 0.052-0.165 0.078-0.071 0.035-0.142 0.071-0.208 0.113-0.058 0.036-0.11 0.076-0.164 0.116-0.057 0.043-0.111 0.087-0.163 0.135-0.055 0.049-0.105 0.101-0.154 0.154-0.043 0.047-0.082 0.096-0.12 0.146-0.048 0.062-0.095 0.126-0.137 0.193-0.029 0.048-0.054 0.098-0.08 0.147-0.04 0.076-0.079 0.151-0.11 0.232-0.017 0.044-0.027 0.09-0.042 0.135-0.029 0.092-0.059 0.182-0.076 0.277-0.001 0.001-0.001 0.001-0.001 0.002l0 0c-0.024 0.137-0.042 0.276-0.042 0.42h2C54.315 11.974 54.457 11.832 54.632 11.832z" data-fill-palette-color="accent"></path><path fill="#374151" d="M40.736 11.832c0.175 0 0.316 0.142 0.316 0.316h2c0-0.144-0.018-0.283-0.042-0.42l0 0c0-0.001 0-0.001-0.001-0.002-0.018-0.096-0.047-0.186-0.076-0.276-0.014-0.046-0.025-0.092-0.042-0.136-0.031-0.081-0.071-0.157-0.11-0.233-0.026-0.05-0.051-0.099-0.08-0.146-0.042-0.067-0.088-0.131-0.137-0.193-0.038-0.05-0.077-0.099-0.12-0.146-0.049-0.055-0.101-0.105-0.154-0.154-0.052-0.048-0.106-0.092-0.163-0.135-0.054-0.04-0.106-0.08-0.163-0.116-0.067-0.042-0.138-0.077-0.209-0.113-0.055-0.026-0.107-0.056-0.165-0.078-0.086-0.034-0.176-0.059-0.266-0.083-0.049-0.013-0.096-0.029-0.146-0.039-0.144-0.028-0.291-0.045-0.442-0.045s-0.299 0.017-0.442 0.045c-0.05 0.01-0.097 0.026-0.146 0.039-0.09 0.024-0.18 0.049-0.266 0.083-0.058 0.022-0.11 0.052-0.165 0.079-0.071 0.035-0.142 0.07-0.208 0.112-0.058 0.036-0.11 0.076-0.164 0.116-0.057 0.043-0.11 0.087-0.162 0.134-0.055 0.05-0.105 0.102-0.155 0.155-0.042 0.047-0.081 0.095-0.119 0.145-0.049 0.063-0.096 0.127-0.138 0.195-0.028 0.047-0.053 0.096-0.078 0.145-0.04 0.076-0.08 0.153-0.111 0.234-0.017 0.043-0.027 0.089-0.041 0.133-0.029 0.092-0.06 0.184-0.078 0.279v0.002l0 0c-0.024 0.137-0.042 0.276-0.042 0.42h2C40.421 11.974 40.562 11.832 40.736 11.832z" data-fill-palette-color="accent"></path><path fill="#374151" d="M45.368 11.832c0.175 0 0.316 0.142 0.316 0.316h2c0-0.144-0.018-0.283-0.042-0.42l0 0c0-0.001 0-0.002-0.001-0.002-0.017-0.095-0.047-0.184-0.075-0.274-0.015-0.046-0.025-0.094-0.043-0.139-0.031-0.08-0.07-0.155-0.11-0.23-0.026-0.051-0.051-0.101-0.081-0.149-0.041-0.066-0.088-0.13-0.136-0.192-0.038-0.05-0.078-0.099-0.12-0.146-0.05-0.055-0.101-0.105-0.154-0.154-0.053-0.048-0.106-0.092-0.163-0.135-0.054-0.041-0.107-0.08-0.164-0.116-0.067-0.042-0.137-0.077-0.208-0.112-0.055-0.027-0.108-0.057-0.165-0.079-0.086-0.034-0.176-0.059-0.267-0.083-0.049-0.013-0.095-0.029-0.145-0.039-0.144-0.028-0.291-0.045-0.442-0.045s-0.299 0.017-0.442 0.045c-0.05 0.01-0.097 0.026-0.146 0.039-0.09 0.024-0.18 0.049-0.266 0.083-0.058 0.022-0.11 0.052-0.165 0.079-0.071 0.035-0.142 0.07-0.208 0.112-0.058 0.036-0.11 0.076-0.165 0.116-0.056 0.043-0.109 0.087-0.161 0.134-0.055 0.05-0.105 0.102-0.155 0.155-0.042 0.047-0.081 0.095-0.119 0.145-0.049 0.063-0.096 0.127-0.138 0.195-0.028 0.047-0.053 0.096-0.078 0.145-0.04 0.076-0.08 0.153-0.111 0.234-0.017 0.043-0.027 0.089-0.041 0.133-0.029 0.092-0.06 0.184-0.078 0.279v0.002l0 0c-0.024 0.137-0.042 0.276-0.042 0.42h2C45.053 11.974 45.194 11.832 45.368 11.832z" data-fill-palette-color="accent"></path></g></svg></g></svg></g><g></g></svg></g></svg></g></svg></g><path d="M84.492 110.723L79.788 108.668 80.845 106.251 64.245 98.996 63.189 101.413 58.467 99.349 63.147 88.642 85.286 89.175 69.614 73.845 74.362 62.98 79.084 65.044 78.028 67.46 94.628 74.715 95.672 72.327 100.375 74.382 96.122 84.113 91.419 82.058 92.199 80.273 77.225 73.729 93.187 89.993 91.078 94.817 68.764 94.507 83.217 100.823 84.062 98.89 88.765 100.946ZM107.119 45.45L103.864 41.481 111.22 35.447 114.475 39.415 113.322 40.361 120.085 44.207 117.69 36.777 116.404 37.832 113.149 33.864 120.505 27.83 123.76 31.798 122.129 33.136 127.712 51.792 130.292 49.675 133.547 53.643 124.23 61.286 120.975 57.318 123.594 55.169 122.39 51.382 108.64 44.201ZM154.643 31.667L153.121 26.765 155.892 25.905 150.521 8.604 147.751 9.464 146.211 4.504 159.447 0.438C160.674 0.057 161.865-0.075 163.02 0.041 164.176 0.163 165.238 0.481 166.205 0.996 167.18 1.514 168.025 2.208 168.741 3.076 169.463 3.942 169.998 4.937 170.347 6.061V6.061C170.754 7.372 170.862 8.528 170.67 9.53 170.478 10.531 170.04 11.424 169.356 12.21V12.21C170.426 12.508 171.353 12.996 172.136 13.673 172.914 14.352 173.49 15.296 173.865 16.503V16.503C174.245 17.731 174.382 18.924 174.275 20.083 174.174 21.24 173.87 22.304 173.364 23.275 172.867 24.251 172.181 25.098 171.306 25.815 170.427 26.541 169.41 27.084 168.254 27.443V27.443ZM164.384 16.345L159.87 17.746 161.83 24.062 166.345 22.661C166.687 22.555 166.982 22.364 167.229 22.089 167.479 21.821 167.67 21.503 167.804 21.135 167.933 20.777 168.003 20.383 168.011 19.956 168.02 19.528 167.96 19.105 167.829 18.685V18.685C167.693 18.246 167.502 17.859 167.257 17.524 167.011 17.19 166.731 16.916 166.417 16.702 166.105 16.494 165.769 16.358 165.409 16.292 165.055 16.225 164.713 16.243 164.384 16.345ZM160.722 5.437L156.46 6.76 158.348 12.844 162.611 11.521C162.94 11.419 163.231 11.237 163.482 10.975 163.727 10.714 163.916 10.411 164.049 10.066 164.181 9.713 164.257 9.343 164.278 8.954 164.303 8.557 164.257 8.167 164.139 7.786V7.786C164.024 7.418 163.842 7.071 163.592 6.745 163.349 6.417 163.07 6.135 162.757 5.9 162.445 5.671 162.112 5.512 161.759 5.424 161.397 5.331 161.052 5.335 160.722 5.437ZM212.389 24.305L212.484 23.264C212.028 23.495 211.61 23.691 211.229 23.853 210.854 24.009 210.48 24.131 210.105 24.219 209.731 24.307 209.349 24.361 208.96 24.38 208.571 24.399 208.148 24.388 207.69 24.346V24.346C206.532 24.241 205.509 23.988 204.622 23.588 203.735 23.188 203.003 22.684 202.427 22.075 201.851 21.465 201.429 20.768 201.161 19.984 200.893 19.199 200.799 18.365 200.879 17.483V17.483C200.961 16.587 201.208 15.774 201.62 15.045 202.032 14.322 202.586 13.717 203.283 13.23 203.978 12.75 204.808 12.401 205.771 12.183 206.742 11.959 207.831 11.902 209.036 12.012V12.012C209.918 12.092 210.719 12.212 211.437 12.373 212.156 12.533 212.819 12.712 213.426 12.91V12.91L213.481 12.304C213.525 11.819 213.472 11.393 213.322 11.027 213.166 10.652 212.93 10.336 212.614 10.076 212.298 9.816 211.909 9.611 211.448 9.461 210.986 9.31 210.476 9.209 209.917 9.159V9.159C208.745 9.052 207.704 9.076 206.794 9.231 205.884 9.379 204.998 9.631 204.138 9.988V9.988L202.679 6.208C204.024 5.455 205.411 4.909 206.841 4.57 208.27 4.239 209.762 4.143 211.318 4.285V4.285C212.523 4.395 213.625 4.631 214.624 4.993 215.631 5.349 216.474 5.864 217.153 6.537 217.832 7.21 218.336 8.05 218.665 9.058 218.988 10.065 219.085 11.266 218.959 12.66V12.66L218.319 19.69 220.915 19.927 220.45 25.038ZM208.495 19.978V19.978C209.377 20.059 210.191 19.99 210.938 19.773 211.691 19.549 212.339 19.255 212.882 18.89V18.89L213.105 16.436 208.63 16.029C208.347 16.003 208.064 16.021 207.78 16.084 207.496 16.139 207.239 16.238 207.009 16.38 206.779 16.522 206.585 16.708 206.429 16.939 206.279 17.163 206.191 17.43 206.162 17.739V17.739C206.11 18.312 206.276 18.809 206.658 19.231 207.041 19.653 207.653 19.902 208.495 19.978ZM245.175 32.887L246.562 30.145 258.854 23.642 255.495 21.943 254.177 24.55 249.814 22.343 253.38 15.292 268.56 22.969 267.04 25.975 254.528 31.991 258.375 33.937 260.06 30.606 264.432 32.817 260.481 40.629ZM288.543 65.484L289.323 64.79C288.834 64.646 288.394 64.503 288.005 64.36 287.625 64.219 287.268 64.052 286.935 63.86 286.601 63.668 286.286 63.446 285.989 63.194 285.693 62.942 285.392 62.644 285.086 62.3V62.3C284.313 61.431 283.74 60.548 283.366 59.649 282.992 58.751 282.803 57.882 282.8 57.044 282.796 56.206 282.965 55.408 283.306 54.652 283.647 53.896 284.148 53.224 284.81 52.635V52.635C285.482 52.037 286.218 51.613 287.019 51.363 287.814 51.117 288.632 51.055 289.472 51.176 290.308 51.302 291.152 51.614 292.004 52.114 292.866 52.615 293.699 53.317 294.503 54.222V54.222C295.092 54.884 295.594 55.519 296.008 56.128 296.423 56.736 296.784 57.32 297.091 57.879V57.879L297.546 57.475C297.91 57.151 298.163 56.804 298.304 56.434 298.446 56.054 298.49 55.662 298.437 55.256 298.384 54.851 298.241 54.436 298.007 54.01 297.774 53.584 297.47 53.162 297.097 52.743V52.743C296.315 51.863 295.539 51.169 294.769 50.659 294.004 50.145 293.185 49.724 292.314 49.395V49.395L293.834 45.64C295.33 46.01 296.716 46.561 297.991 47.291 299.26 48.026 300.414 48.978 301.452 50.145V50.145C302.257 51.049 302.899 51.975 303.38 52.923 303.871 53.871 304.134 54.823 304.169 55.778 304.204 56.734 303.997 57.691 303.549 58.652 303.095 59.607 302.345 60.55 301.3 61.48V61.48L296.025 66.173 297.757 68.121 293.923 71.532ZM288.66 59.664V59.664C289.249 60.326 289.89 60.833 290.583 61.185 291.286 61.537 291.96 61.766 292.605 61.87V61.87L294.446 60.232 291.46 56.875C291.271 56.663 291.052 56.482 290.802 56.333 290.557 56.18 290.302 56.077 290.037 56.023 289.772 55.969 289.503 55.972 289.231 56.033 288.969 56.095 288.722 56.229 288.49 56.435V56.435C288.06 56.817 287.841 57.293 287.831 57.863 287.822 58.432 288.098 59.032 288.66 59.664ZM330.748 103.819L324.145 106.23 322.339 101.284 324.226 100.596C324.05 100.113 323.857 99.683 323.647 99.306 323.434 98.938 323.195 98.629 322.931 98.38 322.67 98.137 322.369 97.962 322.028 97.856 321.68 97.753 321.295 97.732 320.871 97.793V97.793L314.267 100.203 315.624 103.919 310.802 105.679 306.458 93.778 311.28 92.018 312.274 94.743 320.859 91.61 319.879 88.923 324.7 87.163 327.66 95.271 326.383 95.737C326.977 96.104 327.504 96.57 327.963 97.137 328.422 97.704 328.79 98.368 329.069 99.13V99.13C329.351 99.905 329.639 100.704 329.932 101.525 330.219 102.35 330.49 103.114 330.748 103.819ZM66.696 181.083L71.407 179.023 72.468 181.448 89.085 174.181 88.024 171.756 92.755 169.687 97.445 180.411 82.005 196.32 103.928 195.235 108.683 206.108 103.953 208.177 102.896 205.761 86.279 213.028 87.324 215.416 82.612 217.477 78.348 207.728 83.06 205.667 83.84 207.452 98.831 200.896 76.025 201.581 73.912 196.748 89.312 180.547 74.842 186.876 75.691 188.818 70.979 190.879ZM112.929 231.522L116.19 227.545 123.564 233.59 120.303 237.567 119.142 236.615 116.696 244.015 123.527 240.21 122.233 239.149 125.493 235.172 132.867 241.217 129.606 245.194 127.967 243.85 110.744 252.986 113.325 255.102 110.064 259.079 100.738 251.433 103.998 247.456 106.626 249.61 110.097 247.681 114.459 232.776ZM148.895 270.913L150.419 266.001 153.199 266.863 158.571 249.541 155.791 248.678 157.332 243.708 170.564 247.854C171.791 248.235 172.85 248.804 173.741 249.562 174.627 250.311 175.322 251.174 175.826 252.152 176.339 253.125 176.646 254.176 176.749 255.306 176.854 256.428 176.732 257.552 176.384 258.676V258.676C175.977 259.987 175.407 261.003 174.674 261.724 173.949 262.441 173.082 262.93 172.074 263.19V263.19C172.793 264.044 173.281 264.97 173.537 265.97 173.798 266.979 173.741 268.087 173.367 269.294V269.294C172.986 270.522 172.423 271.583 171.679 272.477 170.934 273.372 170.077 274.08 169.108 274.601 168.148 275.117 167.1 275.426 165.964 275.527 164.835 275.629 163.692 275.502 162.536 275.143V275.143ZM165.624 263.782L161.11 262.381 159.148 268.708 163.662 270.108C164.011 270.216 164.365 270.227 164.725 270.14 165.083 270.06 165.417 269.905 165.729 269.676 166.039 269.454 166.322 269.17 166.577 268.824 166.827 268.477 167.017 268.093 167.147 267.673V267.673C167.283 267.234 167.346 266.804 167.335 266.383 167.315 265.966 167.236 265.584 167.096 265.236 166.958 264.882 166.762 264.577 166.508 264.321 166.255 264.066 165.96 263.886 165.624 263.782ZM168.783 252.707L164.52 251.385 162.63 257.479 166.893 258.801C167.229 258.905 167.571 258.92 167.92 258.844 168.27 258.768 168.598 258.622 168.906 258.406 169.218 258.198 169.494 257.937 169.733 257.622 169.971 257.313 170.149 256.965 170.269 256.578V256.578C170.384 256.209 170.433 255.821 170.418 255.413 170.405 254.998 170.332 254.607 170.198 254.24 170.07 253.875 169.887 253.553 169.648 253.273 169.407 253 169.119 252.812 168.783 252.707ZM214.172 279.061L214.076 278.01C213.664 278.326 213.288 278.598 212.949 278.826 212.602 279.048 212.256 279.235 211.91 279.389 211.558 279.543 211.192 279.665 210.813 279.754 210.427 279.843 210.005 279.909 209.548 279.951V279.951C208.389 280.056 207.338 279.992 206.393 279.759 205.448 279.526 204.634 279.162 203.951 278.668 203.274 278.166 202.732 277.553 202.327 276.83 201.922 276.106 201.679 275.303 201.598 274.421V274.421C201.517 273.525 201.613 272.681 201.887 271.889 202.161 271.097 202.597 270.402 203.194 269.804 203.791 269.2 204.547 268.703 205.462 268.314 206.378 267.925 207.438 267.676 208.643 267.566V267.566C209.526 267.486 210.335 267.46 211.071 267.488 211.813 267.515 212.501 267.568 213.132 267.646V267.646L213.078 267.05C213.034 266.565 212.901 266.153 212.68 265.813 212.466 265.473 212.18 265.203 211.822 265.005 211.465 264.807 211.045 264.675 210.564 264.611 210.076 264.546 209.553 264.54 208.994 264.591V264.591C207.822 264.697 206.802 264.906 205.934 265.216 205.066 265.532 204.242 265.944 203.459 266.449V266.449L201.332 262.997C202.525 262.005 203.794 261.218 205.14 260.633 206.485 260.042 207.935 259.676 209.491 259.534V259.534C210.703 259.424 211.833 259.457 212.881 259.633 213.936 259.808 214.858 260.166 215.647 260.705 216.436 261.237 217.083 261.969 217.589 262.901 218.096 263.84 218.412 265.006 218.539 266.4V266.4L219.181 273.441 221.777 273.204 222.243 278.326ZM209.55 275.51V275.51C210.439 275.429 211.231 275.21 211.925 274.855 212.62 274.507 213.205 274.104 213.679 273.646V273.646L213.453 271.172 208.968 271.58C208.686 271.606 208.41 271.675 208.142 271.788 207.874 271.9 207.639 272.047 207.439 272.229 207.238 272.41 207.081 272.628 206.968 272.883 206.862 273.13 206.823 273.409 206.851 273.718V273.718C206.903 274.291 207.155 274.75 207.608 275.096 208.061 275.448 208.709 275.586 209.55 275.51ZM253.935 268.474L252.547 265.731 254.593 251.954 251.234 253.653 252.553 256.259 248.181 258.471 244.61 251.411 259.807 243.724 261.332 246.738 258.76 260.395 262.616 258.444 260.931 255.114 265.312 252.898 269.268 260.718ZM303.054 231.451L302.265 230.75C302.18 231.263 302.092 231.718 302 232.116 301.899 232.515 301.775 232.889 301.628 233.237 301.476 233.591 301.292 233.93 301.076 234.254 300.856 234.583 300.593 234.919 300.287 235.263V235.263C299.514 236.132 298.703 236.804 297.855 237.28 297.006 237.756 296.163 238.047 295.326 238.153 294.489 238.25 293.675 238.173 292.884 237.922 292.094 237.672 291.368 237.252 290.706 236.663V236.663C290.034 236.065 289.527 235.384 289.185 234.618 288.844 233.852 288.686 233.047 288.714 232.203 288.736 231.354 288.948 230.474 289.35 229.565 289.752 228.655 290.355 227.748 291.16 226.844V226.844C291.748 226.182 292.321 225.61 292.877 225.127 293.438 224.639 293.975 224.208 294.49 223.833V223.833L294.043 223.435C293.679 223.111 293.3 222.901 292.907 222.804 292.518 222.703 292.125 222.702 291.728 222.801 291.332 222.901 290.936 223.092 290.54 223.374 290.14 223.661 289.754 224.014 289.381 224.433V224.433C288.599 225.312 287.997 226.162 287.575 226.981 287.159 227.805 286.838 228.67 286.613 229.574V229.574L282.7 228.509C282.893 226.97 283.28 225.527 283.862 224.181 284.44 222.83 285.248 221.571 286.286 220.404V220.404C287.095 219.494 287.942 218.745 288.827 218.157 289.717 217.564 290.634 217.194 291.579 217.048 292.519 216.897 293.491 216.989 294.498 217.323 295.509 217.662 296.537 218.296 297.583 219.226V219.226L302.865 223.926 304.598 221.978 308.44 225.396ZM297.253 232.02V232.02C297.846 231.353 298.275 230.653 298.538 229.919 298.807 229.19 298.958 228.496 298.992 227.838V227.838L297.135 226.186 294.141 229.551C293.953 229.763 293.799 230.002 293.68 230.267 293.562 230.533 293.491 230.8 293.468 231.07 293.446 231.34 293.481 231.606 293.573 231.869 293.664 232.122 293.826 232.352 294.058 232.559V232.559C294.488 232.941 294.986 233.103 295.553 233.046 296.124 232.994 296.691 232.652 297.253 232.02ZM312.576 173.572L319.179 175.983 317.37 180.938 315.483 180.249C315.307 180.732 315.178 181.185 315.095 181.608 315.019 182.034 315.002 182.424 315.046 182.778 315.089 183.132 315.207 183.46 315.4 183.76 315.596 184.07 315.88 184.339 316.25 184.567V184.567L322.853 186.978 324.213 183.253 329.044 185.017 324.691 196.937 319.86 195.173 320.859 192.438 312.265 189.3 311.28 191.996 306.449 190.232 309.417 182.105 310.703 182.575C310.478 181.909 310.373 181.212 310.387 180.483 310.399 179.76 310.546 179.015 310.826 178.246V178.246C311.109 177.471 311.407 176.676 311.719 175.861 312.033 175.04 312.319 174.277 312.576 173.572ZM59.704 142.013C59.704 136.013 64.569 131.148 70.569 131.148 76.57 131.148 81.434 136.013 81.434 142.013 81.434 148.014 76.57 152.878 70.569 152.878 64.569 152.878 59.704 148.014 59.704 142.013ZM315.323 142.013C315.323 136.013 320.188 131.148 326.188 131.148 332.189 131.148 337.053 136.013 337.053 142.013 337.053 148.014 332.189 152.878 326.188 152.878 320.188 152.878 315.323 148.014 315.323 142.013Z" fill="#374151" data-fill-palette-color="accent"></path></svg></g><defs></defs></svg><rect width="395.52" height="280" fill="none" stroke="none" visibility="hidden"></rect></g></svg></g></svg>